<?xml version="1.0" encoding="UTF-8" standalone="no"?>
<svg
   xmlns:dc="http://purl.org/dc/elements/1.1/"
   xmlns:cc="http://creativecommons.org/ns#"
   xmlns:rdf="http://www.w3.org/1999/02/22-rdf-syntax-ns#"
   xmlns:svg="http://www.w3.org/2000/svg"
   xmlns="http://www.w3.org/2000/svg"
   xmlns:sodipodi="http://sodipodi.sourceforge.net/DTD/sodipodi-0.dtd"
   xmlns:inkscape="http://www.inkscape.org/namespaces/inkscape"
   version="1.1"
   width="1280"
   height="1024"
   viewBox="0 0 1280 1024"
   xml:space="preserve"
   id="svg88"
   sodipodi:docname="logoProcessed.svg"
   inkscape:version="1.0.2 (e86c8708, 2021-01-15)"><metadata
   id="metadata92"><rdf:RDF><cc:Work
       rdf:about=""><dc:format>image/svg+xml</dc:format><dc:type
         rdf:resource="http://purl.org/dc/dcmitype/StillImage" /><dc:title></dc:title></cc:Work></rdf:RDF></metadata><sodipodi:namedview
   pagecolor="#ffffff"
   bordercolor="#666666"
   borderopacity="1"
   objecttolerance="10"
   gridtolerance="10"
   guidetolerance="10"
   inkscape:pageopacity="0"
   inkscape:pageshadow="2"
   inkscape:window-width="1309"
   inkscape:window-height="737"
   id="namedview90"
   showgrid="false"
   inkscape:zoom="0.54394531"
   inkscape:cx="640"
   inkscape:cy="512"
   inkscape:window-x="0"
   inkscape:window-y="23"
   inkscape:window-maximized="0"
   inkscape:current-layer="svg88" />
<desc
   id="desc70">Created with Fabric.js 3.6.3</desc>
<defs
   id="defs72">
</defs>
<g
   transform="matrix(1.9692780337941629 0 0 1.9692780337941629 640.0153846153846 512.012312418764)"
   id="background-logo"
   style="fill:none">
<rect
   style="stroke:none;stroke-width:1;stroke-dasharray:none;stroke-linecap:butt;stroke-dashoffset:0;stroke-linejoin:miter;stroke-miterlimit:4;fill:none;fill-rule:nonzero;opacity:1"
   paint-order="stroke"
   x="-325"
   y="-260"
   rx="0"
   ry="0"
   width="650"
   height="520"
   id="rect74" />
</g>
<g
   transform="matrix(1.9564008,0,0,1.9564008,640.01538,512.01231)"
   id="logo-logo"
   style="opacity:0.8;fill:#ffffff;fill-opacity:0.50196081">
<g
   paint-order="stroke"
   id="g85"
   style="fill:#ffffff;fill-opacity:0.50196081">
		<g
   transform="matrix(0.21130883,0,0,-0.21130883,-0.02325756,63.20247)"
   id="g79"
   style="fill:#ffffff;fill-opacity:0.50196081">
<path
   style="opacity:1;fill:#ffffff;fill-rule:nonzero;stroke:none;stroke-width:1;stroke-linecap:butt;stroke-linejoin:miter;stroke-miterlimit:4;stroke-dasharray:none;stroke-dashoffset:0;fill-opacity:0.50196081"
   paint-order="stroke"
   transform="translate(-1627.49,-1003.7795)"
   d="m 1923.19,870.277 c -12.7,15.102 -23.5,32.399 -32.2,51.2 -39,84.003 -34.1,196.403 38.1,260.303 2.1,2 4.5,3.9 6.9,5.9 -0.6,45.9 -11.4,89.2 -30.3,128 -19.2,-13.7 -37.8,-28.6 -55.8,-44.5 -122.8,-108.6 -126.2,-292.004 -56.9,-420.703 -49.8,-24.899 -105.9,-39 -165.4,-39 -59.6,0 -115.7,14.101 -165.5,39.199 69.2,128.703 65.9,312.104 -56.9,420.504 -17.8,15.9 -36.6,30.6 -55.7,44.4 -18.8,-38.9 -29.6,-82.2 -30.2,-128.1 2.4,-2 4.5,-3.7 6.7,-5.7 72.2,-63.9 77.1,-176.3 38,-260.303 -8.6,-18.801 -19.4,-36.098 -32.1,-51.2 -13.8,-16.8 -28.9,-30.601 -43.8,-41.5 88.3,-84.8 207.9,-136.898 339.5,-136.898 131.4,0 251.1,51.898 339.3,136.699 -14.9,11.098 -30,24.899 -43.7,41.699"
   stroke-linecap="round"
   id="path77" />
</g>
		<g
   transform="matrix(0.21130883,0,0,-0.21130883,0,-19.788755)"
   id="g83"
   style="fill:#ffffff;fill-opacity:0.50196081">
<path
   style="opacity:1;fill:#ffffff;fill-rule:nonzero;stroke:none;stroke-width:1;stroke-linecap:butt;stroke-linejoin:miter;stroke-miterlimit:4;stroke-dasharray:none;stroke-dashoffset:0;fill-opacity:0.50196081"
   paint-order="stroke"
   transform="translate(-1627.6001,-1396.528)"
   d="m 2335.29,1816.28 -30.2,97.6 -70.4,-74.1 c -106,-111.8 -230.5,-161.6 -319.5,-184 41.5,-25.1 79.6,-55.7 112.9,-90.6 66.7,24.3 141.2,61.8 213.4,119.1 13.4,-138.3 -65.3,-199.3 -181.4,-270.9 -26.1,48.9 -60.2,92.8 -100.6,129.9 -43.9,40.6 -95.1,72.9 -151.6,95.1 -55.7,22.3 -116.5,34.5 -180.3,34.5 -63.7,0 -124.5,-12.2 -180.2,-34.5 -56.5,-22.2 -107.7,-54.5 -151.6,-95.1 -40.4,-37.1 -74.5,-81 -100.6,-129.9 -116.3,71.4 -195,132.6 -181.6,270.9 72.1,-57.3 146.7,-94.8 213.5,-119.3 33.4,35.1 71.2,65.7 112.8,90.8 -88.8,22.4 -213.6,72.2 -319.5,184 l -70.202,74.1 -30.2,-97.6 c -94.5,-305.4 73.399,-420.3 231.602,-516.2 -9.6,-37.7 -14.5,-77.1 -14.5,-117.7 0,-114.4 39.4,-219.704 105.5,-303.204 34,20.402 67.1,53.5 83.6,87.402 -43.7,60.802 -69.4,135.402 -69.4,215.802 0,16.8 1.1,33.5 3.5,49.6 5.5,42.4 18.2,82.4 37.1,118.9 35.7,69.8 92.7,126.7 162.5,162.1 50.5,25.7 107.3,40.3 167.7,40.3 60.2,0 117.3,-14.6 167.5,-40.3 69.9,-35.3 126.9,-92.3 162.6,-161.9 18.9,-36.5 31.8,-76.5 37.3,-118.9 2.3,-16.3 3.5,-33 3.5,-49.8 0,-80.4 -25.7,-155 -69.4,-215.802 16.3,-33.902 49.4,-67 83.5,-87.402 66.1,83.5 105.6,188.804 105.6,303.204 0,40.6 -4.9,80 -14.6,117.7 158.3,95.9 326,210.8 231.7,516.2"
   stroke-linecap="round"
   id="path81" />
</g>
</g>
</g>
</svg>
